# xmcd
#
# Track frame offsets:
#	150
#	16555
#	34432
#	52289
#	71762
#
# Disc length: 1206 seconds
#
# Revision: 0
# Processed by: cddbd v1.5.2PL0 Copyright (c) Steve Scherf et al.
# Submitted via: dBpowerAMP V4.0
#
DISCID=4204b405
DTITLE=5 - cuti
DYEAR=1900
DGENRE=Acapella
TTITLE0=1
TTITLE1=2
TTITLE2=3
TTITLE3=4
TTITLE4=5
EXTD=cuti\n
EXTT0=
EXTT1=
EXTT2=
EXTT3=
EXTT4=
PLAYORDER=
